# xmcd CD database file
#
# Track frame offsets:
#	150
#	16437
#	31962
#	42546
#	57168
#	74678
#	88220
#	101435
#	112362
#	129333
#	145452
#	160585
#
# Disc length: 2324 seconds
#
# Revision: 1
# Processed by: cddbd v1.5.2PL0 Copyright (c) Steve Scherf et al.
# Submitted via: CDex 1.51
#
DISCID=ae09120c
DTITLE=MILIONÁRIO E JOSÉ RICO - 1988-VIVA A VIDA - VOL. 18
DYEAR=1988
DGENRE=Sertanejo
TTITLE0=VIVA A VIDA
TTITLE1=MINHA VOLTA
TTITLE2=A CARTA
TTITLE3=PAIXÃO DE UM HOMEM
TTITLE4=DOR DA PAIXÃO
TTITLE5=MINHA VERDADE
TTITLE6=SOZINHO NA ESTRADA
TTITLE7=PORTO ABANDONADO
TTITLE8=HOMEM TRISTE
TTITLE9=MINHA VÓZ
TTITLE10=MINHA SOLIDÃO
TTITLE11=MINHA SOMBRA
EXTD=YEAR: 1988
EXTT0=
EXTT1=
EXTT2=
EXTT3=
EXTT4=
EXTT5=
EXTT6=
EXTT7=
EXTT8=
EXTT9=
EXTT10=
EXTT11=
PLAYORDER=
